<?xml version="1.0" encoding="UTF-8" standalone="no"?>
<!DOCTYPE svg PUBLIC "-//W3C//DTD SVG 1.1//EN" "http://www.w3.org/Graphics/SVG/1.1/DTD/svg11.dtd">
<svg width="100%" height="100%" viewBox="0 0 289 263" version="1.1" xmlns="http://www.w3.org/2000/svg" xmlns:xlink="http://www.w3.org/1999/xlink" xml:space="preserve" xmlns:serif="http://www.serif.com/" style="fill-rule:evenodd;clip-rule:evenodd;stroke-linejoin:round;stroke-miterlimit:2;">
    <g transform="matrix(1,0,0,1,-104.27,-0.24)">
        <g transform="matrix(1,0,0,1,104.27,0.24)">
            <path d="M161.98,6.62L175,6.62L288.74,203.62L288.74,203.63L264.25,245.38L164.71,245.36L174.8,262.76L170.41,262.76L160.32,245.36L36.85,245.35L36.76,245.35L30.44,234.26L22.6,234.26L0,195.12L0.02,195.11L0.02,195.1L29.02,144.86L55.85,129.38L100.24,52.49L91.31,37.04L112.7,0L158.16,0L161.98,6.62ZM139.47,68.01L60.95,203.66L136.13,203.66L127.44,188.67L209.35,188.74L139.47,68.01Z" style="fill:white;"/>
        </g>
    </g>
</svg>
